<?xml version="1.0" standalone="no"?>
<!DOCTYPE svg PUBLIC "-//W3C//DTD SVG 20010904//EN"
 "http://www.w3.org/TR/2001/REC-SVG-20010904/DTD/svg10.dtd">
<svg version="1.0" xmlns="http://www.w3.org/2000/svg"
 width="459.000000pt" height="40" viewBox="0 0 459.000000 125.000000"
 preserveAspectRatio="xMidYMid meet">

<g transform="translate(0.000000,125.000000) scale(0.100000,-0.100000)"
fill="#FFFFFF" stroke="none">
<path d="M671 985 c-78 -38 -124 -55 -152 -55 -21 0 -39 -2 -39 -5 0 -16 33
-66 55 -83 16 -13 25 -30 26 -48 0 -28 1 -28 9 -6 8 19 17 22 67 22 73 0 198
34 239 65 l31 24 13 -42 c7 -23 19 -55 27 -70 13 -27 17 -28 56 -22 23 4 45
13 49 19 22 32 -9 135 -54 184 -23 23 -62 30 -74 11 -4 -7 -16 -1 -33 15 -26
24 -70 46 -95 46 -7 0 -63 -25 -125 -55z"/>
<path d="M1590 485 l0 -345 45 0 45 0 2 281 3 282 115 -282 115 -282 34 3 34
3 113 275 113 275 1 -277 0 -278 50 0 50 0 -2 342 -3 343 -68 0 -69 0 -106
-257 c-59 -142 -109 -258 -112 -258 -4 0 -55 117 -115 260 l-109 260 -68 0
-68 0 0 -345z"/>
<path d="M2394 808 c3 -13 61 -167 129 -343 l124 -320 47 0 48 0 133 338 c96
244 129 340 120 343 -7 3 -30 4 -50 2 l-37 -3 -102 -272 c-56 -150 -104 -275
-107 -278 -4 -3 -51 120 -106 272 l-101 278 -52 3 c-50 3 -52 2 -46 -20z"/>
<path d="M3097 824 c-4 -4 -7 -160 -7 -346 l0 -338 50 0 50 0 2 277 3 277 186
-275 186 -274 61 -3 62 -3 0 346 0 345 -45 0 -45 0 -2 -286 -3 -286 -190 283
-190 284 -55 3 c-31 2 -59 0 -63 -4z"/>
<path d="M3870 485 l0 -345 45 0 45 0 0 155 0 155 180 0 180 0 0 -155 0 -155
45 0 45 0 0 345 0 345 -45 0 -45 0 0 -145 0 -145 -180 0 -180 0 0 145 0 145
-45 0 -45 0 0 -345z"/>
<path d="M510 744 c-30 -2 -79 -6 -107 -10 l-53 -5 -1 -102 c0 -79 -3 -97 -11
-80 -25 51 -73 33 -62 -23 4 -20 2 -40 -5 -48 -7 -9 -8 -28 -2 -61 5 -27 7
-54 4 -61 -2 -6 0 -15 5 -18 6 -3 8 -14 5 -24 -6 -24 21 -46 47 -39 19 5 20 0
20 -104 l0 -109 28 7 c15 4 97 7 182 7 130 0 164 -4 210 -21 l54 -20 61 21
c50 17 86 20 210 20 83 0 162 -3 177 -7 l27 -7 3 107 c3 101 4 108 23 106 34
-5 44 10 49 77 4 36 9 77 12 92 3 14 0 29 -6 33 -7 4 -9 21 -5 44 4 27 2 41
-8 49 -18 15 -46 5 -49 -17 -1 -9 -4 26 -7 78 l-6 95 -30 8 c-45 12 -332 12
-394 -1 -37 -8 -73 -8 -110 -2 -72 12 -191 19 -261 15z m284 -31 c19 -6 53 -5
95 4 70 13 262 17 349 7 l52 -7 0 -108 c0 -89 -3 -110 -16 -117 -11 -6 -18
-27 -21 -58 -2 -27 -7 -52 -11 -55 -4 -4 -36 -3 -72 3 -69 10 -251 4 -275 -9
-8 -5 50 -7 128 -5 78 2 160 0 181 -5 36 -8 39 -11 40 -44 l1 -36 -35 8 c-74
18 -330 8 -330 -12 0 -4 17 -5 38 -1 39 7 179 8 300 2 l72 -4 0 -96 0 -97
-153 5 c-132 4 -164 2 -235 -16 -78 -20 -84 -20 -125 -4 -34 13 -77 17 -230
17 l-187 0 0 96 c0 95 0 97 25 101 13 3 26 2 27 -2 2 -3 40 -2 85 4 55 6 114
6 175 0 51 -6 95 -9 97 -7 17 13 -34 18 -184 18 -148 0 -173 2 -173 15 1 8 -1
21 -3 29 -7 25 60 33 220 29 93 -3 145 -1 132 4 -39 14 -222 21 -286 10 -33
-6 -64 -7 -68 -3 -4 4 -8 29 -9 55 0 35 -5 49 -19 57 -17 9 -19 22 -19 119 l0
109 43 4 c67 7 359 0 391 -10z m-470 -175 c9 -36 7 -48 -8 -48 -15 0 -26 21
-26 51 0 27 26 24 34 -3z m1038 -4 c-5 -34 -11 -44 -27 -44 -18 0 -20 23 -4
51 13 25 35 19 31 -7z m-984 -71 c-4 -24 -98 -32 -98 -9 0 16 19 23 68 25 27
1 33 -3 30 -16z m977 7 c34 -13 23 -30 -20 -30 -43 0 -65 9 -65 26 0 17 46 19
85 4z m-965 -54 c0 -18 -22 -26 -71 -26 -43 0 -52 16 -16 30 36 14 87 12 87
-4z m949 8 c48 -10 40 -34 -11 -34 -48 0 -74 12 -64 29 8 12 29 14 75 5z
m-946 -51 c15 -14 -18 -33 -59 -33 -31 0 -44 4 -44 14 0 21 86 37 103 19z
m945 1 c12 -4 22 -13 22 -21 0 -23 -94 -14 -98 10 -3 13 3 17 25 17 15 0 38
-3 51 -6z m-938 -58 c0 -17 -22 -26 -65 -26 -71 0 -40 38 33 39 21 1 32 -4 32
-13z m934 4 c38 -14 31 -30 -13 -30 -49 0 -71 8 -71 26 0 17 46 19 84 4z"/>
<path d="M433 633 c-13 -2 -23 -8 -23 -12 0 -4 26 -4 58 1 59 10 253 5 285 -7
9 -4 17 -3 17 3 0 5 -17 12 -37 16 -42 6 -264 6 -300 -1z"/>
<path d="M903 633 c-13 -2 -23 -9 -23 -15 0 -6 8 -7 18 -3 30 12 214 17 280 7
66 -9 89 1 25 12 -42 6 -264 6 -300 -1z"/>
<path d="M463 551 c-24 -4 -45 -9 -47 -12 -2 -2 78 -4 179 -4 106 0 174 3 162
8 -31 12 -243 17 -294 8z"/>
<path d="M933 551 c-24 -4 -45 -9 -47 -12 -2 -2 78 -4 179 -4 106 0 174 3 162
8 -31 12 -243 17 -294 8z"/>
<path d="M438 463 c-16 -2 -28 -8 -28 -13 0 -5 14 -6 33 -2 17 4 84 7 147 7
63 0 130 -3 148 -7 17 -4 32 -4 32 1 0 5 -17 11 -37 15 -41 6 -250 6 -295 -1z"/>
<path d="M908 463 c-16 -2 -28 -8 -28 -13 0 -5 14 -6 33 -2 17 4 84 7 147 7
63 0 130 -3 148 -7 17 -4 32 -4 32 1 0 5 -17 11 -37 15 -41 6 -250 6 -295 -1z"/>
<path d="M463 211 c-24 -4 -45 -9 -47 -12 -2 -2 78 -4 179 -4 101 0 175 3 163
8 -30 11 -246 17 -295 8z"/>
<path d="M938 211 c-26 -4 -49 -9 -52 -11 -2 -3 78 -5 179 -5 103 0 174 4 162
8 -30 11 -233 17 -289 8z"/>
<path d="M391 36 c-1 -22 2 -27 16 -22 89 35 268 38 360 7 56 -19 65 -19 96
-6 81 34 280 36 363 5 34 -13 34 -14 33 18 -1 17 -3 21 -6 9 -3 -12 -11 -16
-23 -12 -92 29 -222 31 -326 5 l-80 -20 -78 20 c-105 27 -223 24 -328 -6 -10
-3 -18 2 -21 13 -3 11 -5 7 -6 -11z"/>
</g>
</svg>
